<svg width="849" height="166" viewBox="0 0 849 166" fill="none" xmlns="http://www.w3.org/2000/svg">
<path d="M92.208 93.592C92.816 93.592 93.344 93.832 93.792 94.312L98.256 99.16C95.44 102.552 91.984 105.176 87.888 107.032C83.792 108.856 78.896 109.768 73.2 109.768C68.144 109.768 63.568 108.904 59.472 107.176C55.408 105.416 51.936 102.984 49.056 99.88C46.176 96.744 43.952 93.016 42.384 88.696C40.848 84.376 40.08 79.624 40.08 74.44C40.08 69.256 40.896 64.504 42.528 60.184C44.192 55.832 46.512 52.104 49.488 49C52.496 45.864 56.08 43.432 60.24 41.704C64.432 39.976 69.04 39.112 74.064 39.112C79.056 39.112 83.456 39.928 87.264 41.56C91.104 43.16 94.432 45.304 97.248 47.992L93.552 53.224C93.296 53.576 92.992 53.88 92.64 54.136C92.288 54.392 91.808 54.52 91.2 54.52C90.56 54.52 89.824 54.232 88.992 53.656C88.192 53.048 87.152 52.392 85.872 51.688C84.624 50.952 83.04 50.296 81.12 49.72C79.232 49.112 76.864 48.808 74.016 48.808C70.72 48.808 67.696 49.384 64.944 50.536C62.192 51.688 59.824 53.368 57.84 55.576C55.856 57.784 54.304 60.472 53.184 63.64C52.096 66.808 51.552 70.408 51.552 74.44C51.552 78.504 52.128 82.136 53.28 85.336C54.432 88.504 56.016 91.192 58.032 93.4C60.048 95.576 62.416 97.24 65.136 98.392C67.856 99.544 70.784 100.12 73.92 100.12C75.84 100.12 77.552 100.024 79.056 99.832C80.592 99.608 82 99.272 83.28 98.824C84.56 98.344 85.76 97.752 86.88 97.048C88.032 96.344 89.168 95.48 90.288 94.456C90.928 93.88 91.568 93.592 92.208 93.592ZM131.175 59.272C134.791 59.272 138.055 59.864 140.967 61.048C143.911 62.232 146.407 63.912 148.455 66.088C150.535 68.264 152.135 70.904 153.255 74.008C154.375 77.112 154.935 80.6 154.935 84.472C154.935 88.344 154.375 91.832 153.255 94.936C152.135 98.04 150.535 100.696 148.455 102.904C146.407 105.08 143.911 106.76 140.967 107.944C138.055 109.128 134.791 109.72 131.175 109.72C127.527 109.72 124.231 109.128 121.287 107.944C118.375 106.76 115.879 105.08 113.799 102.904C111.719 100.696 110.119 98.04 108.999 94.936C107.879 91.832 107.319 88.344 107.319 84.472C107.319 80.6 107.879 77.112 108.999 74.008C110.119 70.904 111.719 68.264 113.799 66.088C115.879 63.912 118.375 62.232 121.287 61.048C124.231 59.864 127.527 59.272 131.175 59.272ZM131.175 101.656C135.591 101.656 138.871 100.184 141.015 97.24C143.191 94.264 144.279 90.024 144.279 84.52C144.279 79.016 143.191 74.776 141.015 71.8C138.871 68.792 135.591 67.288 131.175 67.288C126.695 67.288 123.367 68.792 121.191 71.8C119.015 74.776 117.927 79.016 117.927 84.52C117.927 90.024 119.015 94.264 121.191 97.24C123.367 100.184 126.695 101.656 131.175 101.656ZM201.099 72.088C199.659 70.232 198.075 68.936 196.347 68.2C194.619 67.464 192.747 67.096 190.731 67.096C186.699 67.096 183.547 68.584 181.275 71.56C179.003 74.504 177.867 78.872 177.867 84.664C177.867 87.672 178.123 90.248 178.635 92.392C179.147 94.504 179.883 96.232 180.843 97.576C181.803 98.92 182.971 99.896 184.347 100.504C185.723 101.112 187.275 101.416 189.003 101.416C191.627 101.416 193.883 100.856 195.771 99.736C197.691 98.584 199.467 96.968 201.099 94.888V72.088ZM211.419 37.96V109H205.179C203.803 109 202.923 108.344 202.539 107.032L201.627 101.704C199.579 104.104 197.243 106.04 194.619 107.512C192.027 108.984 189.003 109.72 185.547 109.72C182.795 109.72 180.299 109.176 178.059 108.088C175.819 106.968 173.899 105.352 172.299 103.24C170.699 101.128 169.451 98.52 168.555 95.416C167.691 92.28 167.259 88.696 167.259 84.664C167.259 81.016 167.739 77.64 168.699 74.536C169.691 71.432 171.099 68.744 172.923 66.472C174.747 64.168 176.955 62.376 179.547 61.096C182.171 59.784 185.099 59.128 188.331 59.128C191.211 59.128 193.659 59.592 195.675 60.52C197.691 61.416 199.499 62.68 201.099 64.312V37.96H211.419ZM261.15 79C261.15 77.272 260.894 75.672 260.382 74.2C259.902 72.696 259.182 71.4 258.222 70.312C257.262 69.192 256.062 68.328 254.622 67.72C253.214 67.08 251.582 66.76 249.726 66.76C245.982 66.76 243.038 67.832 240.894 69.976C238.75 72.12 237.39 75.128 236.814 79H261.15ZM236.526 85.336C236.654 88.12 237.086 90.536 237.822 92.584C238.558 94.6 239.534 96.28 240.75 97.624C241.998 98.968 243.47 99.976 245.166 100.648C246.894 101.288 248.814 101.608 250.926 101.608C252.942 101.608 254.686 101.384 256.158 100.936C257.63 100.456 258.91 99.944 259.998 99.4C261.086 98.824 262.014 98.312 262.782 97.864C263.55 97.384 264.254 97.144 264.894 97.144C265.726 97.144 266.366 97.464 266.814 98.104L269.742 101.896C268.526 103.336 267.15 104.552 265.614 105.544C264.078 106.536 262.446 107.352 260.718 107.992C258.99 108.6 257.214 109.032 255.39 109.288C253.566 109.576 251.79 109.72 250.062 109.72C246.67 109.72 243.518 109.16 240.606 108.04C237.726 106.888 235.214 105.208 233.07 103C230.958 100.792 229.294 98.056 228.078 94.792C226.894 91.528 226.302 87.768 226.302 83.512C226.302 80.12 226.83 76.952 227.886 74.008C228.974 71.064 230.51 68.504 232.494 66.328C234.51 64.152 236.942 62.44 239.79 61.192C242.67 59.912 245.918 59.272 249.534 59.272C252.542 59.272 255.326 59.768 257.886 60.76C260.446 61.72 262.654 63.144 264.51 65.032C266.366 66.92 267.806 69.24 268.83 71.992C269.886 74.712 270.414 77.816 270.414 81.304C270.414 82.904 270.238 83.976 269.886 84.52C269.534 85.064 268.894 85.336 267.966 85.336H236.526ZM339.957 81.928V109H328.773V81.928L303.524 39.88H313.365C314.357 39.88 315.141 40.12 315.717 40.6C316.293 41.08 316.773 41.688 317.157 42.424L331.317 67.192C331.957 68.44 332.533 69.624 333.045 70.744C333.589 71.864 334.069 72.968 334.485 74.056C334.837 72.936 335.269 71.832 335.781 70.744C336.293 69.624 336.869 68.44 337.509 67.192L351.573 42.424C351.893 41.784 352.357 41.208 352.965 40.696C353.573 40.152 354.357 39.88 355.317 39.88H365.205L339.957 81.928ZM386.706 59.272C390.322 59.272 393.586 59.864 396.498 61.048C399.442 62.232 401.938 63.912 403.986 66.088C406.066 68.264 407.666 70.904 408.786 74.008C409.906 77.112 410.466 80.6 410.466 84.472C410.466 88.344 409.906 91.832 408.786 94.936C407.666 98.04 406.066 100.696 403.986 102.904C401.938 105.08 399.442 106.76 396.498 107.944C393.586 109.128 390.322 109.72 386.706 109.72C383.058 109.72 379.762 109.128 376.818 107.944C373.906 106.76 371.41 105.08 369.33 102.904C367.25 100.696 365.65 98.04 364.53 94.936C363.41 91.832 362.85 88.344 362.85 84.472C362.85 80.6 363.41 77.112 364.53 74.008C365.65 70.904 367.25 68.264 369.33 66.088C371.41 63.912 373.906 62.232 376.818 61.048C379.762 59.864 383.058 59.272 386.706 59.272ZM386.706 101.656C391.122 101.656 394.402 100.184 396.546 97.24C398.722 94.264 399.81 90.024 399.81 84.52C399.81 79.016 398.722 74.776 396.546 71.8C394.402 68.792 391.122 67.288 386.706 67.288C382.226 67.288 378.898 68.792 376.722 71.8C374.546 74.776 373.458 79.016 373.458 84.52C373.458 90.024 374.546 94.264 376.722 97.24C378.898 100.184 382.226 101.656 386.706 101.656ZM466.662 60.04V109H460.422C459.046 109 458.166 108.344 457.782 107.032L457.014 102.472C455.99 103.56 454.902 104.552 453.75 105.448C452.63 106.344 451.43 107.112 450.15 107.752C448.87 108.392 447.494 108.888 446.022 109.24C444.582 109.592 443.03 109.768 441.366 109.768C438.678 109.768 436.31 109.32 434.262 108.424C432.214 107.528 430.486 106.264 429.078 104.632C427.702 103 426.662 101.048 425.958 98.776C425.254 96.472 424.902 93.944 424.902 91.192V60.04H435.222V91.192C435.222 94.488 435.974 97.048 437.478 98.872C439.014 100.696 441.334 101.608 444.438 101.608C446.71 101.608 448.822 101.096 450.774 100.072C452.758 99.016 454.614 97.576 456.342 95.752V60.04H466.662ZM493.938 69.112C495.474 66.008 497.33 63.576 499.506 61.816C501.682 60.024 504.29 59.128 507.33 59.128C508.386 59.128 509.378 59.256 510.306 59.512C511.234 59.736 512.066 60.088 512.802 60.568L512.082 68.344C511.954 68.888 511.746 69.272 511.458 69.496C511.202 69.688 510.85 69.784 510.402 69.784C509.922 69.784 509.234 69.704 508.338 69.544C507.442 69.352 506.498 69.256 505.506 69.256C504.066 69.256 502.786 69.464 501.666 69.88C500.578 70.296 499.586 70.904 498.69 71.704C497.826 72.504 497.058 73.48 496.386 74.632C495.714 75.784 495.09 77.096 494.514 78.568V109H484.194V60.04H490.194C491.282 60.04 492.034 60.248 492.45 60.664C492.866 61.048 493.154 61.736 493.314 62.728L493.938 69.112ZM564.676 48.952V71.08H591.7V80.152H564.676V109H553.396V39.88H596.5V48.952H564.676ZM648.568 60.04V109H642.328C640.952 109 640.072 108.344 639.688 107.032L638.92 102.472C637.896 103.56 636.808 104.552 635.656 105.448C634.536 106.344 633.336 107.112 632.056 107.752C630.776 108.392 629.4 108.888 627.928 109.24C626.488 109.592 624.936 109.768 623.272 109.768C620.584 109.768 618.216 109.32 616.168 108.424C614.12 107.528 612.392 106.264 610.984 104.632C609.608 103 608.568 101.048 607.864 98.776C607.16 96.472 606.808 93.944 606.808 91.192V60.04H617.128V91.192C617.128 94.488 617.88 97.048 619.384 98.872C620.92 100.696 623.24 101.608 626.344 101.608C628.616 101.608 630.728 101.096 632.68 100.072C634.664 99.016 636.52 97.576 638.248 95.752V60.04H648.568ZM681.797 109.768C677.733 109.768 674.597 108.632 672.389 106.36C670.213 104.056 669.125 100.824 669.125 96.664V68.152H663.749C663.173 68.152 662.677 67.976 662.261 67.624C661.845 67.24 661.637 66.68 661.637 65.944V61.768L669.557 60.616L671.812 46.456C671.973 45.912 672.245 45.48 672.629 45.16C673.013 44.808 673.525 44.632 674.165 44.632H679.445V60.712H693.029V68.152H679.445V95.944C679.445 97.704 679.877 99.048 680.741 99.976C681.605 100.904 682.757 101.368 684.197 101.368C684.997 101.368 685.685 101.272 686.26 101.08C686.837 100.856 687.333 100.632 687.749 100.408C688.165 100.152 688.517 99.928 688.805 99.736C689.125 99.512 689.429 99.4 689.717 99.4C690.293 99.4 690.757 99.72 691.109 100.36L694.181 105.4C692.581 106.808 690.693 107.896 688.517 108.664C686.341 109.4 684.101 109.768 681.797 109.768ZM747.443 60.04V109H741.203C739.827 109 738.947 108.344 738.563 107.032L737.795 102.472C736.771 103.56 735.683 104.552 734.531 105.448C733.411 106.344 732.211 107.112 730.931 107.752C729.651 108.392 728.275 108.888 726.803 109.24C725.363 109.592 723.811 109.768 722.147 109.768C719.459 109.768 717.091 109.32 715.043 108.424C712.995 107.528 711.267 106.264 709.859 104.632C708.483 103 707.443 101.048 706.739 98.776C706.035 96.472 705.683 93.944 705.683 91.192V60.04H716.003V91.192C716.003 94.488 716.755 97.048 718.259 98.872C719.795 100.696 722.115 101.608 725.219 101.608C727.491 101.608 729.603 101.096 731.555 100.072C733.539 99.016 735.395 97.576 737.123 95.752V60.04H747.443ZM774.72 69.112C776.256 66.008 778.112 63.576 780.288 61.816C782.464 60.024 785.072 59.128 788.112 59.128C789.168 59.128 790.16 59.256 791.088 59.512C792.016 59.736 792.848 60.088 793.584 60.568L792.864 68.344C792.736 68.888 792.528 69.272 792.24 69.496C791.984 69.688 791.632 69.784 791.184 69.784C790.704 69.784 790.016 69.704 789.12 69.544C788.224 69.352 787.28 69.256 786.288 69.256C784.848 69.256 783.568 69.464 782.448 69.88C781.36 70.296 780.368 70.904 779.472 71.704C778.608 72.504 777.84 73.48 777.168 74.632C776.496 75.784 775.872 77.096 775.296 78.568V109H764.976V60.04H770.976C772.064 60.04 772.816 60.248 773.232 60.664C773.648 61.048 773.936 61.736 774.096 62.728L774.72 69.112ZM835.838 79C835.838 77.272 835.582 75.672 835.07 74.2C834.59 72.696 833.87 71.4 832.91 70.312C831.95 69.192 830.75 68.328 829.31 67.72C827.902 67.08 826.27 66.76 824.414 66.76C820.67 66.76 817.726 67.832 815.582 69.976C813.438 72.12 812.078 75.128 811.502 79H835.838ZM811.214 85.336C811.342 88.12 811.774 90.536 812.51 92.584C813.246 94.6 814.222 96.28 815.438 97.624C816.686 98.968 818.158 99.976 819.854 100.648C821.582 101.288 823.502 101.608 825.614 101.608C827.63 101.608 829.374 101.384 830.846 100.936C832.318 100.456 833.598 99.944 834.686 99.4C835.774 98.824 836.702 98.312 837.47 97.864C838.238 97.384 838.942 97.144 839.582 97.144C840.414 97.144 841.054 97.464 841.502 98.104L844.43 101.896C843.214 103.336 841.838 104.552 840.302 105.544C838.766 106.536 837.134 107.352 835.406 107.992C833.678 108.6 831.902 109.032 830.078 109.288C828.254 109.576 826.478 109.72 824.75 109.72C821.358 109.72 818.206 109.16 815.294 108.04C812.414 106.888 809.902 105.208 807.758 103C805.646 100.792 803.982 98.056 802.766 94.792C801.582 91.528 800.99 87.768 800.99 83.512C800.99 80.12 801.518 76.952 802.574 74.008C803.662 71.064 805.198 68.504 807.182 66.328C809.198 64.152 811.63 62.44 814.478 61.192C817.358 59.912 820.606 59.272 824.222 59.272C827.23 59.272 830.014 59.768 832.574 60.76C835.134 61.72 837.342 63.144 839.198 65.032C841.054 66.92 842.494 69.24 843.518 71.992C844.574 74.712 845.102 77.816 845.102 81.304C845.102 82.904 844.926 83.976 844.574 84.52C844.222 85.064 843.582 85.336 842.654 85.336H811.214Z" fill="#FF0000"/>
<path d="M2.1438 138.704C15.5354 133.403 28.5213 130.61 43.0172 130.456C53.2794 130.347 63.6271 130.092 73.7181 132.243C82.7774 134.174 91.8199 136.809 100.753 139.254C147.735 152.112 194.993 172.546 244.223 159.278C269.708 152.41 303.196 140.108 303.196 109.011" stroke="#FF0000" stroke-width="4" stroke-linecap="round" stroke-linejoin="round"/>
</svg>
